# Blender v2.90.1 OBJ File: ''
# www.blender.org
mtllib flag.mtl
o Cylinder
v 0.000000 -40.098942 -1.000000
v 0.000000 40.098942 -1.000000
v 0.195090 -40.098942 -0.980785
v 0.195090 40.098942 -0.980785
v 0.382683 -40.098942 -0.923880
v 0.382683 40.098942 -0.923880
v 0.555570 -40.098942 -0.831470
v 0.555570 40.098942 -0.831470
v 0.707107 -40.098942 -0.707107
v 0.707107 40.098942 -0.707107
v 0.831470 -40.098942 -0.555570
v 0.831470 40.098942 -0.555570
v 0.923880 -40.098942 -0.382683
v 0.923880 40.098942 -0.382683
v 0.980785 -40.098942 -0.195090
v 0.980785 40.098942 -0.195090
v 1.000000 -40.098942 -0.000000
v 1.000000 40.098942 -0.000000
v 0.980785 -40.098942 0.195090
v 0.980785 40.098942 0.195090
v 0.923880 -40.098942 0.382683
v 0.923880 40.098942 0.382683
v 0.831470 -40.098942 0.555570
v 0.831470 40.098942 0.555570
v 0.707107 -40.098942 0.707107
v 0.707107 40.098942 0.707107
v 0.555570 -40.098942 0.831470
v 0.555570 40.098942 0.831470
v 0.382683 -40.098942 0.923880
v 0.382683 40.098942 0.923880
v 0.195090 -40.098942 0.980785
v 0.195090 40.098942 0.980785
v -0.000000 -40.098942 1.000000
v -0.000000 40.098942 1.000000
v -0.195091 -40.098942 0.980785
v -0.195091 40.098942 0.980785
v -0.382684 -40.098942 0.923879
v -0.382684 40.098942 0.923879
v -0.555571 -40.098942 0.831469
v -0.555571 40.098942 0.831469
v -0.707107 -40.098942 0.707106
v -0.707107 40.098942 0.707106
v -0.831470 -40.098942 0.555570
v -0.831470 40.098942 0.555570
v -0.923880 -40.098942 0.382683
v -0.923880 40.098942 0.382683
v -0.980785 -40.098942 0.195089
v -0.980785 40.098942 0.195089
v -1.000000 -40.098942 -0.000001
v -1.000000 40.098942 -0.000001
v -0.980785 -40.098942 -0.195091
v -0.980785 40.098942 -0.195091
v -0.923879 -40.098942 -0.382684
v -0.923879 40.098942 -0.382684
v -0.831469 -40.098942 -0.555571
v -0.831469 40.098942 -0.555571
v -0.707106 -40.098942 -0.707108
v -0.707106 40.098942 -0.707108
v -0.555569 -40.098942 -0.831470
v -0.555569 40.098942 -0.831470
v -0.382682 -40.098942 -0.923880
v -0.382682 40.098942 -0.923880
v -0.195089 -40.098942 -0.980786
v -0.195089 40.098942 -0.980786
v 1.000000 14.876339 -0.000000
v 42.937881 40.098942 -0.000000
v 42.937881 14.876339 -0.000000
v 0.980785 14.876339 -0.195090
v 42.937881 40.098942 -0.195090
v 42.937881 14.876339 -0.195090
vt 1.000000 0.500000
vt 1.000000 1.000000
vt 0.968750 1.000000
vt 0.968750 0.500000
vt 0.937500 1.000000
vt 0.937500 0.500000
vt 0.906250 1.000000
vt 0.906250 0.500000
vt 0.875000 1.000000
vt 0.875000 0.500000
vt 0.843750 1.000000
vt 0.843750 0.500000
vt 0.812500 1.000000
vt 0.812500 0.500000
vt 0.781250 1.000000
vt 0.781250 0.750000
vt 0.781250 0.500000
vt 0.750000 1.000000
vt 0.750000 0.750000
vt 0.750000 0.500000
vt 0.718750 1.000000
vt 0.718750 0.500000
vt 0.687500 1.000000
vt 0.687500 0.500000
vt 0.656250 1.000000
vt 0.656250 0.500000
vt 0.625000 1.000000
vt 0.625000 0.500000
vt 0.593750 1.000000
vt 0.593750 0.500000
vt 0.562500 1.000000
vt 0.562500 0.500000
vt 0.531250 1.000000
vt 0.531250 0.500000
vt 0.500000 1.000000
vt 0.500000 0.500000
vt 0.468750 1.000000
vt 0.468750 0.500000
vt 0.437500 1.000000
vt 0.437500 0.500000
vt 0.406250 1.000000
vt 0.406250 0.500000
vt 0.375000 1.000000
vt 0.375000 0.500000
vt 0.343750 1.000000
vt 0.343750 0.500000
vt 0.312500 1.000000
vt 0.312500 0.500000
vt 0.281250 1.000000
vt 0.281250 0.500000
vt 0.250000 1.000000
vt 0.250000 0.500000
vt 0.218750 1.000000
vt 0.218750 0.500000
vt 0.187500 1.000000
vt 0.187500 0.500000
vt 0.156250 1.000000
vt 0.156250 0.500000
vt 0.125000 1.000000
vt 0.125000 0.500000
vt 0.093750 1.000000
vt 0.093750 0.500000
vt 0.062500 1.000000
vt 0.062500 0.500000
vt 0.296822 0.485388
vt 0.250000 0.490000
vt 0.203179 0.485389
vt 0.158156 0.471731
vt 0.116663 0.449553
vt 0.080295 0.419706
vt 0.050447 0.383337
vt 0.028269 0.341844
vt 0.014612 0.296822
vt 0.010000 0.250000
vt 0.014611 0.203179
vt 0.028269 0.158156
vt 0.050447 0.116663
vt 0.080294 0.080294
vt 0.116663 0.050447
vt 0.158156 0.028269
vt 0.203178 0.014612
vt 0.250000 0.010000
vt 0.296822 0.014612
vt 0.341844 0.028269
vt 0.383337 0.050447
vt 0.419706 0.080294
vt 0.449553 0.116663
vt 0.471731 0.158156
vt 0.485388 0.203178
vt 0.490000 0.250000
vt 0.485388 0.296822
vt 0.471731 0.341844
vt 0.449553 0.383337
vt 0.419706 0.419706
vt 0.383337 0.449553
vt 0.341844 0.471731
vt 0.031250 1.000000
vt 0.031250 0.500000
vt 0.000000 1.000000
vt 0.000000 0.500000
vt 0.750000 0.490000
vt 0.796822 0.485388
vt 0.841844 0.471731
vt 0.883337 0.449553
vt 0.919706 0.419706
vt 0.949553 0.383337
vt 0.971731 0.341844
vt 0.985388 0.296822
vt 0.990000 0.250000
vt 0.985388 0.203178
vt 0.971731 0.158156
vt 0.949553 0.116663
vt 0.919706 0.080294
vt 0.883337 0.050447
vt 0.841844 0.028269
vt 0.796822 0.014612
vt 0.750000 0.010000
vt 0.703178 0.014612
vt 0.658156 0.028269
vt 0.616663 0.050447
vt 0.580294 0.080294
vt 0.550447 0.116663
vt 0.528269 0.158156
vt 0.514611 0.203179
vt 0.510000 0.250000
vt 0.514612 0.296822
vt 0.528269 0.341844
vt 0.550447 0.383337
vt 0.580295 0.419706
vt 0.616663 0.449553
vt 0.658156 0.471731
vt 0.703179 0.485389
vt 0.750000 0.750000
vt 0.750000 1.000000
vt 0.781250 1.000000
vt 0.781250 0.750000
vn 0.0980 0.0000 -0.9952
vn 0.2903 0.0000 -0.9569
vn 0.4714 0.0000 -0.8819
vn 0.6344 0.0000 -0.7730
vn 0.7730 0.0000 -0.6344
vn 0.8819 0.0000 -0.4714
vn 0.9569 0.0000 -0.2903
vn 0.9952 0.0000 -0.0980
vn 0.9952 0.0000 0.0980
vn 0.9569 0.0000 0.2903
vn 0.8819 0.0000 0.4714
vn 0.7730 0.0000 0.6344
vn 0.6344 0.0000 0.7730
vn 0.4714 0.0000 0.8819
vn 0.2903 0.0000 0.9569
vn 0.0980 0.0000 0.9952
vn -0.0980 0.0000 0.9952
vn -0.2903 0.0000 0.9569
vn -0.4714 0.0000 0.8819
vn -0.6344 0.0000 0.7730
vn -0.7730 0.0000 0.6344
vn -0.8819 0.0000 0.4714
vn -0.9569 0.0000 0.2903
vn -0.9952 0.0000 0.0980
vn -0.9952 0.0000 -0.0980
vn -0.9569 0.0000 -0.2903
vn -0.8819 0.0000 -0.4714
vn -0.7730 0.0000 -0.6344
vn -0.6344 0.0000 -0.7730
vn -0.4714 0.0000 -0.8819
vn 0.0000 1.0000 -0.0000
vn -0.2903 0.0000 -0.9569
vn -0.0980 0.0000 -0.9952
vn 0.0000 -1.0000 0.0000
vn 0.0000 0.0000 1.0000
vn 0.0000 0.0000 -1.0000
vn 1.0000 0.0000 0.0000
usemtl None
s off
f 1/1/1 2/2/1 4/3/1 3/4/1
f 3/4/2 4/3/2 6/5/2 5/6/2
f 5/6/3 6/5/3 8/7/3 7/8/3
f 7/8/4 8/7/4 10/9/4 9/10/4
f 9/10/5 10/9/5 12/11/5 11/12/5
f 11/12/6 12/11/6 14/13/6 13/14/6
f 13/14/7 14/13/7 16/15/7 68/16/7 15/17/7
f 15/17/8 68/16/8 16/15/8 18/18/8 65/19/8 17/20/8
f 17/20/9 65/19/9 18/18/9 20/21/9 19/22/9
f 19/22/10 20/21/10 22/23/10 21/24/10
f 21/24/11 22/23/11 24/25/11 23/26/11
f 23/26/12 24/25/12 26/27/12 25/28/12
f 25/28/13 26/27/13 28/29/13 27/30/13
f 27/30/14 28/29/14 30/31/14 29/32/14
f 29/32/15 30/31/15 32/33/15 31/34/15
f 31/34/16 32/33/16 34/35/16 33/36/16
f 33/36/17 34/35/17 36/37/17 35/38/17
f 35/38/18 36/37/18 38/39/18 37/40/18
f 37/40/19 38/39/19 40/41/19 39/42/19
f 39/42/20 40/41/20 42/43/20 41/44/20
f 41/44/21 42/43/21 44/45/21 43/46/21
f 43/46/22 44/45/22 46/47/22 45/48/22
f 45/48/23 46/47/23 48/49/23 47/50/23
f 47/50/24 48/49/24 50/51/24 49/52/24
f 49/52/25 50/51/25 52/53/25 51/54/25
f 51/54/26 52/53/26 54/55/26 53/56/26
f 53/56/27 54/55/27 56/57/27 55/58/27
f 55/58/28 56/57/28 58/59/28 57/60/28
f 57/60/29 58/59/29 60/61/29 59/62/29
f 59/62/30 60/61/30 62/63/30 61/64/30
f 4/65/31 2/66/31 64/67/31 62/68/31 60/69/31 58/70/31 56/71/31 54/72/31 52/73/31 50/74/31 48/75/31 46/76/31 44/77/31 42/78/31 40/79/31 38/80/31 36/81/31 34/82/31 32/83/31 30/84/31 28/85/31 26/86/31 24/87/31 22/88/31 20/89/31 18/90/31 16/91/31 14/92/31 12/93/31 10/94/31 8/95/31 6/96/31
f 61/64/32 62/63/32 64/97/32 63/98/32
f 63/98/33 64/97/33 2/99/33 1/100/33
f 1/101/34 3/102/34 5/103/34 7/104/34 9/105/34 11/106/34 13/107/34 15/108/34 17/109/34 19/110/34 21/111/34 23/112/34 25/113/34 27/114/34 29/115/34 31/116/34 33/117/34 35/118/34 37/119/34 39/120/34 41/121/34 43/122/34 45/123/34 47/124/34 49/125/34 51/126/34 53/127/34 55/128/34 57/129/34 59/130/34 61/131/34 63/132/34
f 18/18/35 65/19/35 67/133/35 66/134/35
f 68/16/36 16/15/36 69/135/36 70/136/36
f 69/135/31 16/15/31 18/18/31 66/134/31
f 67/133/37 70/136/37 69/135/37 66/134/37
f 65/19/34 68/16/34 70/136/34 67/133/34
